# xmcd
#
# Track frame offsets: 
#        182
#        6445
#        19632
#        32495
#        77242
#        83800
#        98395
#        102430
#        116127
#        133655
#        147252
#        163185
#        177747
#
# Disc length: 2702 seconds
#
# Revision: 0
# Processed by: cddbd v1.5.2PL0 Copyright (c) Steve Scherf et al.
# Submitted via: ExactAudioCopy v0.99pb4
#
DISCID=a70a8c0d
DTITLE=Wilkins, Reverend Robert - Remember Me
DYEAR=1971
DGENRE=Gospel
TTITLE0=Jesus Said If You Go
TTITLE1=Jesus Will Fix It Alright
TTITLE2=You Gotta Move
TTITLE3=Streamline Frisco Limited
TTITLE4=Pray For Me
TTITLE5=Don't Let Nobody Turn You Round
TTITLE6=Why Don't You Do It
TTITLE7=Just A Closer Walk With Thee
TTITLE8=Rock Of Ages
TTITLE9=Remember Me
TTITLE10=You've Got To Stand The Test In Judgement
TTITLE11=When The Saints Go Marching In 
TTITLE12=In The Army Of The Lord
EXTD=
EXTT0=
EXTT1=
EXTT2=
EXTT3=
EXTT4=
EXTT5=
EXTT6=
EXTT7=
EXTT8=
EXTT9=
EXTT10=
EXTT11=
EXTT12=
PLAYORDER=
